<svg version="1" xmlns="http://www.w3.org/2000/svg" width="77.333" height="77.333" viewBox="0 0 58.000000 58.000000"><g fill="#6a328b"><path d="M16.8 1.7c-3.6 1.4-3.8 1.7-3.2 5.2.8 4.9-2 7.6-7 6.7-3.3-.6-3.5-.5-5.1 3.9L-.3 22l2.7 2.1c3.5 2.8 3.5 7 0 9.8L-.3 36l1.7 4.5c1.7 4.4 1.8 4.5 5.4 3.9 5-.8 7.7 2 6.8 7-.6 3.3-.5 3.5 3.9 5.1l4.5 1.8 2.1-2.7c2.8-3.5 7-3.5 9.8 0l2.1 2.7 4.5-1.8c4.4-1.6 4.5-1.8 3.9-5-.5-2.6-.1-3.8 1.6-5.5 1.7-1.7 2.9-2.1 5.5-1.6 3.2.6 3.4.5 5-3.9l1.8-4.5-2.7-2.1c-1.7-1.3-2.6-3-2.6-4.9 0-1.9.9-3.6 2.6-4.9l2.7-2.1-1.8-4.5c-1.6-4.4-1.8-4.5-5-3.9-4.7.8-7.9-2.4-7.1-7.1.6-3.2.5-3.4-3.9-5L36-.3l-2.1 2.7c-2.7 3.4-7 3.5-9.7.1-2.3-2.9-2.5-2.9-7.4-.8zM29 8c1.6 0 4.1-1.1 5.7-2.4 3.7-3.2 7.1-1.9 6.5 2.4-.6 4.3 4.6 9.4 8.9 8.8 4.4-.7 5.5 2.6 2.3 6.5-3 3.6-3 7.8 0 11.4 3.2 3.9 2.1 7.2-2.3 6.5-4.3-.6-9.5 4.5-8.9 8.8.6 4.3-2.8 5.6-6.5 2.4-3.6-3-7.8-3.1-11.4 0-3.9 3.2-7.2 2.1-6.5-2.3.6-4.4-4.5-9.5-8.9-8.9-4.4.7-5.5-2.6-2.3-6.5 3-3.6 3-7.8 0-11.4-3.2-3.9-2.1-7.2 2.3-6.5 4.3.6 9.5-4.5 8.9-8.8-.6-4.3 2.7-5.5 6.5-2.4C24.9 6.9 27.4 8 29 8z"/><path d="M22.9 22.9c-3.9 4-3.9 8.2 0 12.2 2 2 3.9 2.9 6.1 2.9 4.3 0 9-4.7 9-9s-4.7-9-9-9c-2.2 0-4.1.9-6.1 2.9zm10.3 1.8c2.4 2.1 2.3 5.8-.2 8.3-5.5 5.5-13.6-2.4-8.3-8.2 2-2.2 6.1-2.3 8.5-.1z"/></g></svg>