<svg version="1" xmlns="http://www.w3.org/2000/svg" width="80" height="80" viewBox="0 0 60.000000 60.000000"><g fill="#6a328b"><path d="M23.1 1.1C9.7 3.6.9 15 .8 29.9.7 42.4 6 51.4 16.6 56.6c7.8 3.8 19.1 3.8 26.9 0C53.9 51.5 59.3 42.4 59.3 30c0-8.6-2.1-14.4-7.2-20.3C45.8 2.6 34-.9 23.1 1.1zm18.9 5c9.6 4.8 14.8 13.2 14.9 23.9.1 10.2-5.6 19.2-15 23.9-8.6 4.3-15.2 4.3-23.9 0C8.4 49.1 3.2 40.7 3.1 30 3 19.8 8.7 10.8 18.1 6.1c8.6-4.3 15.2-4.3 23.9 0z"/><path d="M34.4 17.1c-5.4 4.4-10.2 8.7-10.7 9.4-1 1.8-8.6 23.9-8.3 24.2.4.4 20.1-15.8 20.9-17.2 1-1.8 8.6-23.9 8.3-24.2-.1-.1-4.7 3.4-10.2 7.8zm1.9 8c-2.4 6.6-3.4 8-9 12.7-3.5 2.9-6.3 5.2-6.3 5 0-.2 1.2-3.8 2.8-7.9 2.4-6.7 3.4-8.2 8.7-12.6 3.3-2.8 6.1-5 6.2-4.9.2.1-.9 3.6-2.4 7.7z"/></g></svg>