<svg version="1" xmlns="http://www.w3.org/2000/svg" width="76" height="68" viewBox="0 0 57.000000 51.000000"><path d="M11 1C6.7 2 1 8 .9 11.7c-.3 7.1.3 11.9 2.3 15.6C6 33 15.3 42.5 22.4 47.1l5.9 3.9 4-2.3c5.7-3.1 17.3-14.2 20.4-19.5 5.2-8.8 5-19-.5-24.4-5.4-5.5-15.6-5.6-21.1-.4L28.3 7l-1.9-2.1c-1-1.1-2.6-2.4-3.4-2.9C20.3.7 14.6.2 11 1zm10.8 4c1.8 1.1 3.8 3.1 4.4 4.5.6 1.4 1.7 2.5 2.3 2.5.6 0 1.7-1.1 2.3-2.5C32.3 6.3 37.7 3 41.5 3c4.1 0 9 3.2 11.1 7.1 4.5 8.8-2.8 22.4-18 33.6L28.8 48l-3.1-1.8c-5.4-3-18.2-16.4-20.5-21.4C1.3 16.4 2.9 8.9 9.3 5c4.1-2.5 8.3-2.5 12.5 0z" fill="#6a328b"/></svg>