<svg version="1" xmlns="http://www.w3.org/2000/svg" width="80" height="80" viewBox="0 0 60.000000 60.000000"><g fill="#6a328b"><path d="M48.6 1.1c-7.5 1.1-15.3 4.7-20.8 9.6-2.4 2.1-6.2 4.7-8.6 5.8-4.7 2-11.5 8.9-14.7 14.8-2.1 3.9-1.4 5.9 1.3 3.9 2.8-2 9.6-5.2 11.2-5.1.8 0 2.8 1.8 4.3 4s4.1 4.8 5.7 5.7c1.7.9 3 2.4 3 3.2 0 1.6-3.2 8.4-5.2 11.2-2 2.7 0 3.4 3.9 1.3 5.9-3.2 12.8-10 14.8-14.7 1.1-2.4 3.7-6.2 5.8-8.6 5.2-5.8 8.8-14.1 9.6-21.9.6-5.6.5-6.5-1.4-8.3C56.3.9 55.2.1 54.9.1c-.2.1-3 .5-6.3 1zm8 7.4c-.9 8-4.1 15.7-8.6 20.8-3.9 4.4-12.7 9.7-16.1 9.7C29.7 39 21 30.4 21 28.2c.1-2.8 3.6-9.6 7-13.6C33.7 8.2 44.8 3.2 53.9 3.1l3.4-.1-.7 5.5zM20 22.2c-1.5 3.3-2.7 4.4-6.4 5.9L9 29.8l2.1-3c1.8-2.4 9.3-8.8 10.5-8.8.2 0-.5 1.9-1.6 4.2zm21.4 17c-1.9 3.5-5.7 7.9-8.3 9.7L30.2 51l1.7-4.6c1.4-3.6 2.6-5 5.7-6.4 4.9-2.3 4.7-2.2 3.8-.8z"/><path d="M35.5 14.5c-1.4 1.3-2.5 3.6-2.5 5s1.1 3.7 2.5 5c1.3 1.4 3.6 2.5 5 2.5s3.7-1.1 5-2.5c1.4-1.3 2.5-3.6 2.5-5s-1.1-3.7-2.5-5c-1.3-1.4-3.6-2.5-5-2.5s-3.7 1.1-5 2.5zm8.3 1.7c.7.7 1.2 2.1 1.2 3.3 0 1.2-.5 2.6-1.2 3.3-.7.7-2.1 1.2-3.3 1.2-4 0-6.1-5-3.3-7.8.7-.7 2.1-1.2 3.3-1.2 1.2 0 2.6.5 3.3 1.2zm-34 24.7C7 43.1 1.4 53.3.8 57c-.4 3.2 1.4 3 9.9-1.1C20.3 51.3 23.5 45.5 19 41c-2.5-2.5-6-2.6-9.2-.1zm7.6 3.3c1.6 2.5-.1 4.7-6.5 8.5-8.4 5.1-8.8 4.5-2.9-4.6 4.3-6.6 7-7.7 9.4-3.9z"/></g></svg>