<?xml version="1.0" encoding="UTF-8"?><!DOCTYPE svg PUBLIC "-//W3C//DTD SVG 1.1//EN" "http://www.w3.org/Graphics/SVG/1.1/DTD/svg11.dtd"><svg xmlns="http://www.w3.org/2000/svg"><symbol id="icon-cog" viewBox="0 0 58 58"><path fill="#e3dbed" d="M15.643 56.126c-2.437-1.32-2.77-1.986-2.264-4.519.844-4.218-3.018-8.075-7.238-7.23-2.583.515-3.187.19-4.56-2.465-2.209-4.272-1.979-6.669.919-9.567 3.122-3.122 3.122-4.06 0-7.182-2.898-2.898-3.128-5.295-.918-9.567 1.372-2.654 1.976-2.98 4.559-2.464 4.224.845 8.082-3.013 7.237-7.237-.516-2.582-.19-3.187 2.464-4.559 4.272-2.21 6.669-1.98 9.567.918 3.122 3.123 4.06 3.123 7.182 0 2.897-2.897 5.294-3.127 9.567-.918 2.654 1.372 2.98 1.977 2.464 4.559-.845 4.224 3.013 8.082 7.237 7.237 2.582-.516 3.187-.19 4.559 2.464 2.21 4.273 1.98 6.67-.918 9.567-3.123 3.123-3.123 4.06 0 7.182 2.897 2.898 3.128 5.295.918 9.567-1.372 2.654-1.977 2.98-4.559 2.464-4.224-.845-8.082 3.013-7.237 7.238.516 2.582.19 3.186-2.464 4.558-4.27 2.21-6.668 1.98-9.566-.919-1.375-1.375-2.99-2.5-3.59-2.5s-2.217 1.125-3.592 2.5c-2.85 2.85-5.654 3.1-9.766.872zm7.084-4.372c3.326-2.616 9.222-2.614 12.549.003C38.735 54.477 41 53.426 41 49.102a8.304 8.304 0 0 1 8.348-8.348c4.324 0 5.375-2.265 2.655-5.724C50.812 33.517 50 30.972 50 28.754s.812-4.763 2.003-6.276c2.72-3.46 1.669-5.724-2.655-5.724A8.304 8.304 0 0 1 41 8.406c0-4.324-2.265-5.375-5.724-2.655-3.33 2.619-9.224 2.619-12.553 0C19.265 3.031 17 4.081 17 8.406a8.304 8.304 0 0 1-8.348 8.348c-4.324 0-5.375 2.265-2.655 5.724 2.619 3.329 2.619 9.223 0 12.553-2.72 3.458-1.669 5.723 2.655 5.723 4.657 0 8.348 3.702 8.348 8.37 0 2.92.711 4.059 2.842 4.55.19.043 1.487-.82 2.885-1.92zM22.455 35.3c-3.411-3.41-3.411-9.68 0-13.09 1.806-1.807 3.535-2.455 6.545-2.455s4.74.649 6.545 2.455C37.351 24.016 38 25.745 38 28.755c0 5.629-3.37 9-9 9-3.01 0-4.739-.649-6.545-2.455zm10.091-3C33.895 30.95 35 29.354 35 28.754s-1.105-2.195-2.455-3.545S29.6 22.754 29 22.754c-1.416 0-6 4.584-6 6 0 .6 1.104 2.196 2.454 3.546 1.351 1.349 2.946 2.454 3.546 2.454s2.196-1.105 3.546-2.455z"/><path fill="#d8cfe6" d="M16.2 56.242c-3.007-1.306-3.247-1.726-2.695-4.71.903-4.879-1.298-7.278-6.676-7.278-4.187 0-4.376-.137-5.78-4.198-1.422-4.112-1.396-4.25 1.25-6.703 3.426-3.175 3.426-6.022 0-9.198-2.646-2.452-2.672-2.59-1.25-6.702 1.394-4.035 1.615-4.2 5.649-4.2 5.288 0 6.802-1.513 6.802-6.802 0-4.033.164-4.254 4.199-5.649 4.111-1.421 4.25-1.395 6.702 1.25 3.176 3.427 6.022 3.427 9.198 0 2.452-2.645 2.59-2.671 6.702-1.25 4.035 1.395 4.2 1.616 4.2 5.65 0 5.288 1.513 6.802 6.801 6.802 4.034 0 4.255.164 5.65 4.198 1.421 4.112 1.395 4.25-1.25 6.703-3.427 3.175-3.427 6.022 0 9.198 2.645 2.452 2.671 2.59 1.25 6.702-1.394 4.035-1.615 4.2-5.65 4.2-5.287 0-6.801 1.513-6.801 6.801 0 4.033-.165 4.255-4.199 5.65-4.112 1.42-4.25 1.395-6.702-1.25-3.122-3.37-6.016-3.434-9.011-.202-2.646 2.855-3.783 2.989-8.388.988zm7.3-4.488c2.467-2.726 8.555-2.702 11.04.044 2.906 3.212 5.9 2.18 6.262-2.157.388-4.635 4.44-8.628 9.198-9.065 4.224-.388 5.21-3.417 2.044-6.282-2.77-2.506-2.77-8.573 0-11.08 3.165-2.864 2.18-5.893-2.044-6.282-4.759-.437-8.81-4.43-9.198-9.065C40.44 3.53 37.446 2.5 34.54 5.71c-2.506 2.77-8.573 2.77-11.08 0-2.864-3.165-5.893-2.179-6.282 2.044-.437 4.76-4.43 8.81-9.065 9.198-4.337.363-5.368 3.356-2.157 6.263 2.77 2.506 2.77 8.573 0 11.08-3.165 2.864-2.18 5.893 2.044 6.282 4.727.434 9 4.564 9 8.698 0 1.73.3 3.446.667 3.813 1.28 1.28 4.037.65 5.833-1.334zm-.813-16.805c-8.16-8.517 3.991-20.668 12.508-12.508 5.852 5.607 1.851 15.313-6.313 15.313-2.538 0-4.251-.775-6.195-2.805zM33 32.754c1.1-1.1 2-2.9 2-4 0-2.575-3.424-6-6-6s-6 3.425-6 6c0 1.1.9 2.9 2 4s2.9 2 4 2 2.9-.9 4-2z"/><path fill="#b7a4d1" d="M16.24 56.004c-2.927-1.456-3.199-1.951-2.656-4.842.852-4.542-2.448-7.843-6.988-6.991-2.934.55-3.365.292-4.906-2.94-2.217-4.648-2.149-5.321.81-8.064 1.375-1.274 2.5-3.26 2.5-4.412s-1.125-3.138-2.5-4.412c-2.959-2.743-3.027-3.416-.81-8.064 1.541-3.232 1.972-3.49 4.906-2.94 4.538.85 7.839-2.45 6.988-6.988-.55-2.934-.292-3.365 2.94-4.907 4.648-2.216 5.321-2.148 8.064.81 2.944 3.177 5.881 3.177 8.825 0 2.742-2.958 3.415-3.026 8.063-.81 3.232 1.542 3.49 1.973 2.94 4.907-.851 4.538 2.45 7.839 6.988 6.988 2.934-.55 3.365-.292 4.907 2.94 2.216 4.648 2.148 5.32-.81 8.063-3.177 2.944-3.177 5.881 0 8.825 2.958 2.742 3.026 3.415.81 8.063-1.542 3.232-1.973 3.491-4.907 2.94-4.538-.85-7.839 2.45-6.988 6.988.55 2.934.292 3.365-2.94 4.907-4.648 2.218-5.32 2.15-8.064-.81-1.274-1.374-3.259-2.5-4.412-2.5-1.152 0-3.138 1.126-4.412 2.5-2.67 2.881-3.853 2.987-8.348.75zm7.487-4.25c3.27-2.572 7.31-2.545 10.639.073 3.772 2.968 5.978 2.177 6.724-2.41.789-4.853 3.72-7.784 8.572-8.573 4.587-.745 5.378-2.952 2.411-6.724-2.641-3.358-2.641-7.374 0-10.732 2.967-3.772 2.176-5.978-2.411-6.724-4.852-.788-7.783-3.72-8.572-8.572-.746-4.587-2.952-5.378-6.724-2.411-3.358 2.641-7.374 2.641-10.732 0-3.772-2.967-5.978-2.176-6.724 2.411-.789 4.852-3.72 7.784-8.572 8.572-4.587.746-5.379 2.952-2.411 6.724 2.641 3.358 2.641 7.374 0 10.732-2.994 3.806-2.18 5.978 2.527 6.743 4.68.761 8.546 4.732 8.546 8.78 0 4.681 2.474 5.457 6.727 2.111zm-.804-16.923c-3.93-3.93-3.93-8.224 0-12.154 1.995-1.995 3.925-2.923 6.077-2.923 4.302 0 9 4.698 9 9s-4.698 9-9 9c-2.153 0-4.082-.928-6.077-2.923zM33 32.754c1.1-1.1 2-2.9 2-4 0-2.575-3.424-6-6-6s-6 3.425-6 6c0 1.1.9 2.9 2 4s2.9 2 4 2 2.9-.9 4-2z"/><path fill="#aa93c8" d="M17 56.002c-3.094-1.545-3.461-2.134-3.166-5.077.444-4.437-2.197-7.379-6.307-7.025-4.017.346-5.147-.465-6.543-4.696-1.079-3.268-.976-3.668 1.427-5.558 3.474-2.733 3.474-7.05 0-9.784-2.403-1.89-2.506-2.29-1.427-5.558 1.384-4.196 2.576-5.075 6.344-4.68 3.916.411 6.861-2.452 6.526-6.342-.346-4.018.465-5.148 4.696-6.544 3.268-1.079 3.669-.976 5.559 1.427 2.733 3.474 7.05 3.474 9.783 0 1.89-2.403 2.29-2.506 5.559-1.427 4.23 1.396 5.041 2.526 4.695 6.544-.335 3.89 2.61 6.753 6.526 6.343 3.769-.396 4.96.483 6.345 4.679 1.078 3.268.975 3.669-1.427 5.559-3.475 2.733-3.475 7.05 0 9.783 2.402 1.89 2.505 2.29 1.427 5.559-1.397 4.23-2.527 5.041-6.544 4.695-3.891-.335-6.754 2.61-6.343 6.526.395 3.769-.484 4.96-4.68 6.345-3.267 1.078-3.668.975-5.558-1.427-2.703-3.436-7.052-3.476-9.714-.091-2.338 2.972-2.66 3.006-7.179.748zm12-6.248c1.566 0 4.135 1.084 5.71 2.41 3.592 3.022 6.29 1.934 6.29-2.537 0-4.356 4.76-8.873 9.35-8.873 4.43 0 5.17-2.39 1.957-6.326-2.938-3.6-2.938-7.748 0-11.347 3.213-3.936 2.473-6.326-1.957-6.326-4.59 0-9.35-4.517-9.35-8.874 0-4.47-2.698-5.558-6.29-2.535C33.135 6.67 30.566 7.755 29 7.755s-4.135-1.084-5.71-2.41C19.698 2.324 17 3.412 17 7.882c0 4.357-4.76 8.874-9.35 8.874-4.43 0-5.17 2.39-1.957 6.327 2.938 3.599 2.938 7.747 0 11.347-3.213 3.936-2.473 6.326 1.957 6.326 4.59 0 9.35 4.517 9.35 8.873 0 4.47 2.698 5.558 6.29 2.536 1.575-1.325 4.144-2.41 5.71-2.41zm-6.077-14.923c-3.93-3.93-3.93-8.224 0-12.154 1.995-1.995 3.925-2.923 6.077-2.923 4.302 0 9 4.698 9 9s-4.698 9-9 9c-2.153 0-4.082-.928-6.077-2.923zM33.171 33.1c2.277-2.06 2.36-6.1.174-8.516C29.91 20.788 23 23.459 23 28.58c0 5.349 6.207 8.107 10.17 4.519z"/><path fill="#9273b9" d="M17.004 55.95c-3.134-1.534-3.464-2.076-3.191-5.245.395-4.59-2.419-7.383-6.793-6.74-3.341.49-4.044-.094-5.977-4.969-1.212-3.056-1.13-3.386 1.332-5.323C4.113 32.306 5 30.644 5 28.754s-.887-3.552-2.625-4.919c-2.459-1.935-2.543-2.27-1.34-5.323 1.828-4.634 2.6-5.239 6.28-4.922 4.313.371 7.099-2.56 6.475-6.815-.491-3.342.093-4.044 4.968-5.978 3.056-1.212 3.386-1.129 5.323 1.333C25.448 3.867 27.11 4.754 29 4.754c1.89 0 3.552-.887 4.92-2.624C35.855-.332 36.185-.415 39.241.797c4.875 1.934 5.459 2.636 4.968 5.978-.624 4.254 2.162 7.187 6.475 6.815 3.68-.317 4.452.288 6.28 4.922 1.203 3.053 1.119 3.389-1.34 5.323C53.888 25.202 53 26.864 53 28.754c0 1.89.886 3.552 2.624 4.92 2.46 1.934 2.544 2.27 1.34 5.322-1.828 4.634-2.6 5.24-6.28 4.922-4.312-.371-7.099 2.561-6.474 6.816.49 3.341-.094 4.044-4.968 5.977-3.056 1.212-3.387 1.13-5.323-1.332-2.729-3.47-7.065-3.525-9.74-.124-2.297 2.92-2.569 2.946-7.175.694zm5.738-3.423c3.27-3.072 9.294-3.026 12.619.097 3.31 3.11 5.807 1.761 6.114-3.302.133-2.185 1.08-4.567 2.303-5.79s3.605-2.17 5.79-2.302c5.063-.307 6.411-2.804 3.301-6.115-3.17-3.374-3.17-9.347 0-12.72 3.11-3.311 1.762-5.808-3.301-6.116-4.808-.292-7.8-3.284-8.093-8.092-.307-5.063-2.804-6.411-6.114-3.301-3.374 3.17-9.348 3.17-12.721 0-3.311-3.11-5.808-1.761-6.115 3.302-.292 4.809-3.284 7.8-8.093 8.093-5.063.307-6.411 2.804-3.301 6.115 1.608 1.712 2.323 3.669 2.323 6.36 0 2.691-.715 4.648-2.323 6.36-3.11 3.31-1.762 5.808 3.3 6.115 4.798.291 7.801 3.285 8.092 8.065.188 3.107 1.613 5.381 3.412 5.444.24.009 1.503-.987 2.807-2.212zM25 36.501c-5.23-2.73-6.227-10.42-1.863-14.37 2.918-2.641 9.254-2.43 12.086.4 2.932 2.933 3.065 9.38.251 12.194-2.602 2.6-7.352 3.407-10.475 1.777zM33.17 33.1c2.277-2.06 2.36-6.101.174-8.516C29.91 20.789 23 23.46 23 28.58c0 5.349 6.207 8.106 10.17 4.518z"/><path fill="#805cae" d="M17.435 55.864c-3.76-1.708-4.035-2.1-3.667-5.248.525-4.502-2.36-7.295-6.854-6.636-2.931.43-3.307.141-5.109-3.932l-1.944-4.397 2.57-2.021c3.984-3.134 3.088-9.536-1.55-11.082-.801-.267-.542-1.771.844-4.905 1.882-4.254 2.2-4.496 5.408-4.122 4.507.527 7.301-2.356 6.641-6.852-.43-2.932-.14-3.307 3.932-5.11l4.397-1.944 2.021 2.57c2.71 3.445 7.041 3.445 9.752 0l2.021-2.57 4.397 1.945c4.073 1.802 4.362 2.177 3.932 5.109-.66 4.496 2.134 7.379 6.642 6.852 3.207-.374 3.525-.132 5.407 4.122 1.387 3.134 1.645 4.638.844 4.905-4.638 1.546-5.533 7.948-1.55 11.082l2.57 2.02-1.932 4.368c-1.81 4.09-2.146 4.341-5.34 3.968-4.507-.526-7.301 2.356-6.641 6.853.43 2.932.141 3.307-3.932 5.109l-4.396 1.944-2.021-2.57c-2.686-3.414-7.042-3.445-9.697-.07-2.325 2.956-1.703 2.9-6.744.61zM22 53.78c0-1.7 6.08-4.222 8.633-3.581 1.33.333 3.356 1.545 4.503 2.691 1.704 1.704 2.506 1.893 4.396 1.032 1.608-.733 2.156-1.643 1.803-2.993-1.202-4.597 5.906-11.447 10.177-9.808 1.034.397 1.95-.286 2.756-2.057.957-2.1.946-2.738-.051-3.07-2.07-.69-4.432-6.247-3.773-8.873.334-1.33 1.545-3.356 2.691-4.502 1.705-1.704 1.893-2.507 1.032-4.396-.734-1.608-1.644-2.157-2.995-1.803-4.597 1.202-11.447-5.906-9.808-10.178.388-1.01-.229-1.923-1.775-2.628-1.96-.893-2.73-.72-4.455 1.005-1.147 1.147-3.173 2.358-4.503 2.692-2.626.659-8.182-1.704-8.872-3.773-.333-.998-.97-1.008-3.07-.052-1.77.807-2.454 1.722-2.057 2.756 1.64 4.272-5.21 11.38-9.808 10.178-2.333-.61-5.293 4.345-3.043 5.095 2.07.69 4.432 6.247 3.773 8.873-.334 1.33-1.545 3.355-2.691 4.502-1.725 1.725-1.899 2.494-1.005 4.455.704 1.546 1.618 2.163 2.628 1.776 4.242-1.628 11.38 5.204 10.192 9.753a2.554 2.554 0 0 0 1.164 2.852c2.155 1.258 4.156 1.284 4.156.053zm2.888-17.525c-1.437-.78-3.192-2.82-3.9-4.531-1.714-4.136.526-9.11 4.92-10.93 6.735-2.79 13.875 4.243 11.102 10.937-1.237 2.986-5.467 6.069-8.21 5.984-.716-.022-2.476-.679-3.912-1.46zm8.283-3.155c2.277-2.06 2.36-6.101.174-8.516C29.911 20.788 23 23.459 23 28.58c0 5.349 6.207 8.106 10.171 4.518z"/><path fill="#7750a8" d="M17.742 56.032C14.22 54.628 14 54.284 14 50.182c0-4.98-1.65-6.428-7.327-6.428-3.06 0-3.635-.433-4.983-3.75-1.471-3.619-1.44-3.83.893-6.04 3.304-3.13 3.3-8.376-.009-10.877-2.354-1.779-2.38-1.943-.893-5.583 1.355-3.315 1.934-3.75 4.992-3.75 5.677 0 7.327-1.448 7.327-6.428 0-4.101.22-4.446 3.742-5.85 3.591-1.433 3.83-1.397 5.952.893 2.942 3.175 7.67 3.175 10.612 0 2.122-2.29 2.36-2.326 5.952-.893C43.78 2.88 44 3.225 44 7.326c0 4.98 1.65 6.428 7.327 6.428 3.058 0 3.636.435 4.991 3.75 1.488 3.64 1.461 3.804-.893 5.584-3.308 2.5-3.312 7.745-.008 10.876 2.333 2.21 2.364 2.42.893 6.04-1.348 3.317-1.923 3.75-4.983 3.75-5.677 0-7.327 1.448-7.327 6.428 0 4.102-.22 4.446-3.742 5.85-3.592 1.433-3.83 1.397-5.952-.893-1.412-1.524-3.328-2.385-5.306-2.385-1.978 0-3.894.862-5.306 2.386-2.123 2.29-2.36 2.325-5.953.893zm5.936-3.445c3-2.818 7.669-2.796 10.7.052 1.715 1.611 3.054 2.045 4.89 1.584 2.121-.533 2.514-1.191 2.432-4.08-.135-4.756 3.934-8.824 8.689-8.69 2.89.082 3.548-.31 4.08-2.431.461-1.837.027-3.175-1.584-4.89-2.87-3.056-2.87-7.7 0-10.755 1.611-1.715 2.045-3.054 1.584-4.891-.532-2.121-1.19-2.513-4.08-2.431-4.755.134-8.824-3.934-8.69-8.69.083-2.889-.31-3.547-2.43-4.08-1.837-.46-3.176-.027-4.891 1.584-3.056 2.87-7.7 2.87-10.755 0-1.715-1.611-3.054-2.045-4.89-1.584-2.122.533-2.514 1.191-2.432 4.08.135 4.756-3.934 8.824-8.69 8.69-2.889-.082-3.547.31-4.08 2.431-.46 1.837-.027 3.176 1.584 4.89 1.28 1.362 2.219 3.64 2.219 5.378s-.94 4.017-2.219 5.378c-1.61 1.715-2.044 3.054-1.583 4.89.532 2.122 1.19 2.514 4.08 2.432 4.77-.135 8.824 3.933 8.688 8.718-.094 3.316.561 4.023 4.136 4.466.515.064 1.974-.859 3.242-2.05zM26.5 36.8c-6.013-2.433-7.637-9.363-3.227-13.772 5.166-5.166 14.06-1.543 14.06 5.727 0 5.216-6.287 9.885-10.833 8.045zm6.882-3.335c1.287-.941 1.676-2.355 1.44-5.232-.267-3.265-.794-4.107-3.072-4.903a8.428 8.428 0 0 0-5.5 0c-2.216.774-2.809 1.662-3.053 4.569-.196 2.328.273 4.183 1.321 5.231 1.95 1.95 6.424 2.118 8.864.335z"/></symbol><symbol id="icon-compass" viewBox="0 0 60 60"><path fill="#d6cbe4" d="M20.022 57.748c-6.273-2.213-15.148-11.27-17.33-17.684-3.967-11.668-1.364-23.032 7.25-31.646C16.359 2.002 22.287-.508 31.018-.508c8.73 0 14.659 2.51 21.074 8.925 8.614 8.615 11.218 19.978 7.25 31.646-2.28 6.702-11.05 15.473-17.752 17.752-6.083 2.07-15.597 2.04-21.567-.068zm21.552-3.716c1.772-.74 5.046-2.993 7.274-5.006 11.232-10.148 11.657-27.884.916-38.294L46.49 7.558l-4.414 13.1-4.414 13.1-7.523 6.117C17.158 50.43 16.382 51.222 17.706 52.564c3.612 3.663 16.689 4.468 23.868 1.468zM34.46 16.965c5.468-4.471 10.12-8.663 10.338-9.315 1.262-3.786-16.796-5.99-23.921-2.92C11.019 8.976 4.579 18.797 4.646 29.482c.048 7.715 1.816 12.282 6.958 17.974l3.78 4.185 4.567-13.274 4.566-13.274 9.943-8.129zm-3.796 17.799c3.071-2.794 4.675-5.392 6.184-10.022 2.34-7.174 1.884-7.218-5.478-.522-3.071 2.794-4.675 5.393-6.184 10.022-2.34 7.175-1.884 7.218 5.478.522z"/><path fill="#c8b8dc" d="M23.017 58.616c-8.59-2.826-15.027-8.252-19.13-16.124-1.925-3.692-2.346-6.025-2.344-13 .002-7.264.387-9.227 2.649-13.5 3.155-5.96 7.69-10.433 13.825-13.63 6.474-3.376 19.525-3.376 26 0 6.134 3.197 10.67 7.67 13.825 13.63 2.261 4.272 2.647 6.236 2.648 13.5.002 6.974-.419 9.307-2.344 13-5.433 10.423-14.2 16.11-25.63 16.63-3.85.174-8.125-.053-9.5-.506zm15.942-3.7c10.39-3.085 19.058-14.648 19.058-25.424 0-13.681-13.32-27-27-27s-27 13.319-27 27c0 10.43 8.097 21.615 18.165 25.092 6.601 2.28 9.993 2.346 16.777.332zm-22.724-5.558c.287-.752 2.267-6.49 4.402-12.752l3.88-11.384 10.388-8.393c5.714-4.615 10.546-8.236 10.738-8.044.191.191-1.613 5.912-4.01 12.712L37.276 33.86l-8.88 7.345c-10.063 8.324-12.97 10.274-12.162 8.152zm13.332-13.364c4.286-3.662 5.653-5.648 7.35-10.674 1.148-3.397 1.875-6.387 1.617-6.644-.257-.258-2.92 1.625-5.916 4.185-4.244 3.626-5.829 5.812-7.17 9.893-.947 2.88-1.93 5.8-2.183 6.488-.828 2.242.944 1.328 6.302-3.249z"/><path fill="#bca9d4" d="M22.382 58.462c-8.82-2.723-18.027-12.313-20.463-21.313-2.685-9.921 1.208-23.034 8.822-29.72C17.355 1.622 21.738.017 31.017.004c7.552-.011 9.093.316 13.82 2.934 5.946 3.294 10.074 7.551 13.412 13.83 3.223 6.065 3.223 19.382 0 25.445-5.69 10.706-14.36 16.419-25.665 16.91-3.887.169-8.478-.128-10.202-.661zm15.817-3.004c6.212-1.725 12.83-7.03 16.214-12.993 2.71-4.778 3.104-6.426 3.104-12.973s-.394-8.195-3.104-12.973C49.083 7.122 38.85 1.725 28.395 2.797 15.768 4.089 5.615 14.243 4.32 26.87 2.426 45.376 20.273 60.437 38.199 55.458zm-21.841-6.216c.279-.688 2.225-6.346 4.325-12.573L24.5 25.346l10.398-8.455c5.719-4.65 10.52-8.33 10.668-8.176.15.152-1.635 5.847-3.964 12.655l-4.234 12.378-10.273 8.372c-5.65 4.605-10.491 8.372-10.758 8.372-.267 0-.258-.563.021-1.25zM36.934 25.27c1.146-3.391 2.083-6.573 2.083-7.071 0-.498-2.663 1.402-5.918 4.221-4.941 4.281-6.26 6.143-8 11.293-1.145 3.391-2.082 6.573-2.082 7.071 0 .498 2.663-1.402 5.918-4.221 4.942-4.282 6.26-6.144 8-11.293z"/><path fill="#a991c7" d="M21.349 57.702c-25.087-8.967-27.281-43.25-3.514-54.92 8.093-3.975 18.27-3.975 26.363 0 10.728 5.267 16.278 14.375 16.278 26.71 0 8.519-2.076 14.217-7.383 20.26-7.17 8.166-21.264 11.696-31.743 7.95zm21.625-4.347c9.642-4.818 14.89-13.23 14.89-23.863s-5.248-19.045-14.89-23.864c-8.608-4.301-15.277-4.316-23.811-.051C-.983 15.644-1.043 43.31 19.06 53.356c4.824 2.41 7.59 3.136 11.957 3.136 4.366 0 7.133-.726 11.957-3.136zM20.473 37.952c2.492-7.066 4.87-13.142 5.287-13.503 1.235-1.07 17.645-14.255 19.044-15.301 1.319-.987-7.164 24.228-8.53 25.355-2.377 1.96-17.04 13.755-18.544 14.916-1.37 1.057-.73-1.621 2.743-11.467zm8.35-1.08c4.945-4.028 6.015-5.564 8.361-12 1.48-4.059 2.467-7.38 2.194-7.38-.273 0-3.048 2.08-6.167 4.62-4.945 4.028-6.016 5.564-8.362 12-1.481 4.059-2.468 7.38-2.195 7.38.273 0 3.049-2.079 6.168-4.62z"/><path fill="#9374ba" d="M22.809 58.149C9.892 54.509 1.478 42.967 1.556 28.992 1.62 17.328 7.798 7.709 18.559 2.514c6.989-3.374 17.927-3.374 24.916 0 6.286 3.034 11.53 8.264 14.594 14.555 3.358 6.894 3.325 17.838-.075 24.88-3.002 6.22-8.889 12.174-14.485 14.65-5.714 2.527-14.814 3.209-20.7 1.55zM44.72 52.87C61.37 42.578 62.637 19.575 47.204 7.804 35.546-1.088 18.408 1.4 9.329 13.304c-4.173 5.472-5.662 11.089-5.034 18.99.579 7.292 4.02 13.728 9.85 18.426 5.524 4.45 10.336 5.857 18.61 5.439 5.863-.296 8.138-.922 11.966-3.288zM20.8 37.659c4.804-13.958 2.955-11.62 19.755-24.99l5.039-4.01-4.36 12.665c-4.804 13.958-2.955 11.62-19.755 24.99l-5.038 4.01 4.36-12.667zm8.327-.917c5.264-4.258 6.126-5.502 8.312-12 1.342-3.988 2.208-7.25 1.924-7.25-.283 0-3.152 2.071-6.376 4.604-5.32 4.18-6.088 5.284-8.346 12-1.367 4.068-2.238 7.396-1.936 7.396.302 0 3.192-2.138 6.423-4.75z"/><path fill="#805cae" d="M24.75 58.45C1.886 52.777-6.204 24.873 10.326 8.69 22.149-2.882 40.429-2.834 51.818 8.8c17.505 17.883 6.677 47.51-18.301 50.073-2.75.282-6.695.092-8.766-.422zm16.832-3.848c17.315-7.865 21.99-29.157 9.522-43.358C43.449 2.524 29.7-.146 19.258 5.059 9.502 9.92 4.076 18.652 4.038 29.546c-.036 10.983 6.12 20.38 16.414 25.056 5.439 2.47 15.692 2.47 21.13 0zM17.18 48.457c.298-.806 2.02-5.965 3.826-11.465 2.734-8.327 3.98-10.67 7.453-14 6.13-5.88 17.022-14.162 16.393-12.465-.298.806-2.02 5.965-3.826 11.465-2.734 8.327-3.981 10.669-7.453 14-6.13 5.879-17.022 14.162-16.393 12.465zm20.1-23.493c1.522-4.277 2.647-7.892 2.5-8.033-.145-.141-3.045 1.97-6.445 4.69-5.535 4.43-6.414 5.652-8.397 11.66-1.219 3.69-2.465 7.386-2.77 8.21-.304.826 2.349-.806 5.897-3.625 5.957-4.735 6.662-5.72 9.215-12.902z"/><path fill="#7750a8" d="M25.164 58.428C11.777 55.763 1.723 43.352 1.723 29.492c0-21.417 22.599-35.935 41.524-26.676 18.34 8.974 22.845 31.518 9.293 46.519-6.612 7.318-17.734 11.012-27.376 9.093zm17.39-4.302c6-2.793 12.652-9.983 14.287-15.44 1.505-5.025 1.505-13.363 0-18.387-.647-2.159-2.992-5.988-5.212-8.51C38.41-3.23 14.312.32 6.095 18.491c-2.327 5.148-2.727 14.101-.902 20.193 1.635 5.458 8.287 12.648 14.286 15.441 6.925 3.225 16.152 3.225 23.076 0zm-25.37-5.665c.303-.808 2.25-6.307 4.327-12.218l3.777-10.748 10.056-8.222c5.53-4.522 9.808-7.56 9.505-6.752-.303.809-2.25 6.307-4.327 12.218l-3.777 10.748L26.69 41.71c-5.53 4.523-9.808 7.56-9.505 6.752zM31.992 34.59c2.638-2.538 4.402-5.606 5.985-10.412 1.235-3.747 2.055-7.004 1.822-7.237-.233-.233-3.317 1.964-6.853 4.882-5.854 4.83-6.632 5.933-8.68 12.308-1.238 3.852-2.25 7.34-2.25 7.75 0 1.038 5.486-2.971 9.975-7.29z"/></symbol><symbol id="icon-heart" viewBox="0 0 57 51"><path fill="#e3dbed" d="M19.614 46.064C6.472 36.193-.152 26.206-.17 16.239-.188 6.549 6.078.12 15.538.12c3.88 0 5.844.625 8.883 2.826l3.901 2.826 3.898-2.826C37.143-.623 44.353-.95 49.4 2.17c10.513 6.496 9.863 21.376-1.49 34.153C42.598 42.304 30.936 51.1 28.32 51.1c-1.1 0-5.018-2.267-8.707-5.038zm13.857-2.047c2.48-1.708 6.918-5.55 9.86-8.539C55.696 22.911 56.593 10.3 45.51 4.79c-4.755-2.364-9.575-.963-13.467 3.916-1.498 1.878-3.174 3.414-3.724 3.414s-2.225-1.536-3.724-3.414c-3.893-4.879-8.712-6.28-13.468-3.916-13.699 6.811-8.71 24.022 11.192 38.614 2.75 2.017 5.37 3.677 5.82 3.691.451.014 2.85-1.372 5.331-3.079z"/><path fill="#d8cee5" d="M21.959 47.529C14.2 42.304 5.342 32.887 2.26 26.59.009 21.987-.35 20.143.017 15.063c.4-5.517.807-6.418 4.635-10.245C8.71.758 9.06.62 15.279.62c5.894 0 6.708.27 9.768 3.236l3.34 3.236 3.235-3.236C34.578.901 35.398.62 41.09.62c6.634 0 9.415 1.349 13.287 6.444 1.463 1.924 1.943 4.163 1.943 9.056 0 8.352-2.708 14.005-10.495 21.915C40.138 43.81 30.36 51.12 28.32 51.12c-.564 0-3.427-1.616-6.36-3.592zm12.534-4.031c13.69-10.273 20.336-21.007 18.683-30.17-.776-4.3-5.36-8.798-9.816-9.634-4.515-.847-9.943 1.607-12.27 5.547-2.143 3.628-3.396 3.628-5.54 0C20.713 1.051 8.52 1.913 4.33 10.743c-2.846 5.997-.2 14.649 7.149 23.383C14.72 37.98 26.618 47.12 28.393 47.12c.7 0 3.446-1.63 6.1-3.622z"/><path fill="#c8b8dc" d="M19.13 45.23C6.744 35.888.72 27.045.03 17.18c-.32-4.595.022-6.162 1.975-9.036C8.34-1.18 18.039-2.552 25.895 4.764l2.577 2.398 1.922-2.123c6.902-7.627 19.22-5.967 24.424 3.292 4.015 7.144 1.711 17.036-6.29 27.009-3.584 4.467-18.072 15.78-20.209 15.78-.757 0-4.892-2.65-9.188-5.89zm16.364-2.45c11.333-8.342 17.633-17.687 17.754-26.333.087-6.297-2.406-10.164-7.901-12.255-5.106-1.944-11.131.051-14.011 4.64-1.11 1.766-2.466 3.211-3.016 3.211s-1.908-1.445-3.016-3.211c-2.881-4.589-8.905-6.584-14.012-4.64C.457 8.315.525 21.361 11.448 34.03c4.144 4.807 14.82 13.09 16.872 13.09.704 0 3.932-1.953 7.174-4.34z"/><path fill="#b09acc" d="M22.37 47.588C1.48 33.138-5.962 14.162 5.36 4.22c6.006-5.273 15.283-5.11 20.42.356l2.339 2.49 3.33-2.924c5.945-5.22 13.855-5.17 19.886.124 8.798 7.725 6.734 20.432-5.389 33.18-5.254 5.525-16.007 13.743-17.82 13.619-.442-.03-3.031-1.595-5.753-3.478zM41.844 37.12c4.185-4.125 8.432-9.282 9.439-11.46 4.122-8.917 2.712-16.634-3.761-20.581-5.816-3.547-10.937-2.37-16.3 3.743l-3.098 3.532-2.23-3.132C21.597 3.19 14.92 1.542 9.118 5.08c-11.892 7.25-6.022 24.658 13.055 38.717l5.853 4.314 3.104-1.746c1.707-.96 6.528-5.12 10.713-9.245z"/><path fill="#9071b8" d="M23.366 48.048c-6.5-4.122-14.872-12.198-18.45-17.796C-3.012 17.847-.722 5.784 10.364 1.55 15.697-.486 20.784.537 25.64 4.623c2.872 2.417 2.935 2.424 4.668.51.966-1.068 3.74-2.699 6.166-3.625 7.738-2.955 15.776.938 18.917 9.162 3.384 8.86-1.113 19.274-13.038 30.195-3.457 3.165-8.071 6.757-10.252 7.98l-3.968 2.227-4.768-3.024zM41.459 37.79c8.615-8.103 12.36-14.765 12.36-21.984 0-4.384-.424-5.346-3.882-8.804-3.429-3.429-4.441-3.882-8.671-3.882-4.33 0-5.18.408-8.87 4.258l-4.08 4.258-4.076-4.259c-3.686-3.851-4.532-4.258-8.866-4.258-4.231 0-5.243.453-8.673 3.882-3.457 3.457-3.88 4.416-3.86 8.75.012 2.677.899 6.8 1.97 9.161 2.363 5.206 11.707 15.24 18.428 19.788 4.86 3.289 4.958 3.31 7.94 1.625 1.66-.939 6.285-4.78 10.28-8.536z"/><path fill="#805cae" d="M22.776 47.416C9.47 38.48.603 26.226.463 16.584.273 3.432 13.466-3.728 24.102 3.754L28.32 6.72l4.213-2.967c7.485-5.27 17.234-3.313 21.716 4.362 5.624 9.63-.875 24.498-15.602 35.69-10.47 7.958-9.667 7.776-15.871 3.61zm10.698-2.401c6.904-4.751 15.042-13.362 17.834-18.871 2.948-5.818 3.31-12.861.876-16.984-4.758-8.056-16.993-8.016-21.77.07l-1.677 2.839-4.287-4.474c-3.766-3.93-4.806-4.475-8.554-4.475-15.8 0-17.653 18.036-3.361 32.706 4.809 4.937 14.076 12.223 15.605 12.27.45.013 2.851-1.374 5.334-3.082z"/><path fill="#7750a8" d="M25.81 49.28C8.568 38.4-2.05 22.775.746 12.393 1.996 7.749 7.213 2.44 11.83 1.118c4.41-1.265 9.899.212 12.98 3.491 2.955 3.145 4.066 3.145 7.02 0 3.082-3.28 8.571-4.756 12.98-3.491 4.617 1.324 9.833 6.63 11.084 11.276 2.253 8.369-4.71 21.363-16.308 30.428-10.27 8.027-10.856 8.301-13.775 6.46zm9.523-5.633c15.146-10.808 22.016-24.8 16.97-34.56-4.107-7.94-17.878-7.908-21.993.05-.848 1.64-1.744 2.983-1.99 2.983-.248 0-1.144-1.343-1.992-2.983-4.116-7.958-17.887-7.99-21.992-.05-3.48 6.728-1.02 16.58 6.261 25.086 3.577 4.179 15.856 13.901 17.595 13.931.48.008 3.694-1.998 7.141-4.458z"/></symbol><symbol id="icon-rocket" viewBox="0 0 60 60"><path fill="#c8b8dc" d="M0 58.783C0 56.02 4.71 46.654 7.962 42.95c2.488-2.834 4.001-3.696 6.487-3.696 3.999 0 6.551 2.62 6.551 6.725 0 3.815-5.006 8.503-12.725 11.917C2.112 60.621 0 60.848 0 58.783zm9.79-5.432c4.899-2.512 8.625-6.574 7.859-8.569-1.704-4.442-6.987-1.649-10.746 5.682-2.873 5.601-2.714 5.76 2.887 2.887zM24 56.22c0-.57.73-2.148 1.62-3.509.892-1.36 2.178-4.091 2.858-6.068l1.235-3.595-6.106-6.064c-6.805-6.758-7.581-6.913-14.862-2.977-2.616 1.414-5.077 2.25-5.47 1.855C.837 33.424 14.899 17.054 20.64 15.644c1.572-.386 5.223-2.85 8.112-5.475C35.199 4.31 43.017 1.175 52.89.487l7.39-.515-.515 7.391c-.688 9.873-3.824 17.691-9.681 24.137-2.626 2.889-5.084 6.517-5.464 8.062C42.977 46.264 24 61.591 24 56.218zM39.262 42.4l1.762-2.993-3.827 1.503c-3.127 1.229-4.014 2.206-4.854 5.355l-1.028 3.852 3.092-2.363c1.701-1.3 3.886-3.71 4.855-5.355zm1.062-6.957c8.262-4.43 13.656-13.125 15.59-25.135.57-3.54.909-6.563.753-6.72-.156-.156-3.18.183-6.72.753-12.945 2.085-21.185 7.59-26 17.371-3.59 7.292-3.417 8.079 3.058 13.928 4.586 4.143 5.24 4.134 13.319-.197zm-5.15-10.502c-4.545-4.839-1.164-12.686 5.466-12.686 3.865 0 7.36 3.628 7.36 7.64 0 6.472-8.387 9.771-12.826 5.046zm8.254-2.257C44.293 21.818 45 20.5 45 19.754c0-1.75-2.75-4.5-4.5-4.5s-4.5 2.75-4.5 4.5c0 1.751 2.749 4.5 4.5 4.5.746 0 2.064-.707 2.929-1.571zm-24.083.374l1.503-3.826-2.992 1.762c-1.646.969-4.056 3.153-5.355 4.854l-2.363 3.093 3.852-1.028c3.149-.84 4.126-1.727 5.355-4.855z"/><path fill="#b49fce" d="M.473 59.211C-.529 57.59 6.588 43.724 9.666 41.302c3.297-2.593 6.771-2.61 9.334-.048 4.406 4.406 1.565 9.844-7.686 14.713-7.39 3.889-9.965 4.66-10.84 3.244zm12.745-7.787c4.335-2.79 5.642-5.738 3.497-7.884-2.93-2.93-7.642 1.151-11.457 9.925-1.168 2.685-1.153 2.7 1.531 1.532 1.491-.649 4.384-2.256 6.43-3.573zm11.324 4.899c-.316-.512.525-2.552 1.87-4.533 3.137-4.625 4.36-9.783 2.463-10.398-1.71-.555-8.186-6.99-9.56-9.5-1.298-2.37-5.659-1.572-10.919 1.997-5.402 3.667-6.468 1.712-2.467-4.524 3.914-6.1 9.401-11.194 14.078-13.068 1.921-.77 5.439-3.16 7.818-5.31C34.85 4.63 46.603.252 56.636.252 59.788.253 60 .466 60 3.617c0 10.008-4.367 21.758-10.709 28.812-2.139 2.379-4.703 6.193-5.697 8.477-1.958 4.494-6.767 9.537-13.075 13.712-4.355 2.882-5.114 3.098-5.976 1.704zm13.38-11.79C39.615 42.479 41 40.493 41 40.12c0-1.573-7.26 1.692-7.966 3.583-2.318 6.205-2.34 6.785-.207 5.644 1.11-.594 3.402-2.76 5.095-4.814zm.871-7.863c9.753-4.86 16.345-15.23 17.857-28.093l.662-5.635-5.635.662c-8.138.957-15.81 4.135-20.99 8.694C26.271 16.185 21 24.932 21 28.371c0 2.242 8.641 10.883 10.883 10.883.949 0 4.058-1.163 6.91-2.584zM35.455 24.8C34.105 23.45 33 21.18 33 19.753c0-3.334 4.166-7.5 7.5-7.5 3.334 0 7.5 4.166 7.5 7.5s-4.166 7.5-7.5 7.5c-1.425 0-3.695-1.104-5.045-2.454zm8.345-1.746c2.805-2.805.692-7.8-3.3-7.8-2.68 0-4.5 1.82-4.5 4.5 0 2.68 1.82 4.5 4.5 4.5 1.155 0 2.64-.54 3.3-1.2zm-27.249 4.167c1.891-.707 5.157-7.967 3.583-7.967-1.224 0-8.123 6.111-9.226 8.173-1.142 2.133-.561 2.111 5.644-.206z"/><path fill="#8a68b4" d="M.667 59.587C-.79 58.131 4.832 46.575 9.047 42.36c3.697-3.696 6.813-3.948 9.779-.791 3.04 3.235 2.72 6.372-1.001 9.849-4.469 4.174-15.772 9.556-17.158 8.17zm9.882-6.248c6.166-3.536 7.702-5.284 7.278-8.28-.382-2.695-4.093-3.659-6.477-1.68-1.588 1.317-7.324 10.792-7.341 12.125-.016 1.275 1.305.838 6.54-2.165zm14.153 3.284c-.326-.326.732-2.941 2.352-5.812 3.78-6.697 3.701-8.533-.485-11.384-1.879-1.279-4.463-3.863-5.743-5.743-2.855-4.194-4.684-4.265-11.448-.448-2.905 1.64-5.52 2.596-5.811 2.126-.291-.47 1.24-3.594 3.403-6.94 3.77-5.832 10.875-12.168 13.647-12.168.725 0 3.671-2.09 6.548-4.645 2.877-2.555 7.566-5.715 10.419-7.021C42.997 2.11 58.4-.68 59.668.588c1.28 1.282-1.534 16.698-4.056 22.207-1.337 2.92-4.196 7.257-6.354 9.635-2.157 2.38-4.937 6.462-6.177 9.073s-3.97 6.214-6.065 8.008c-4.619 3.954-11.498 7.928-12.312 7.113zm13.161-11.866c2.746-3.127 3.937-5.503 2.759-5.503-2.274 0-7.612 3.436-8.129 5.233-1.796 6.246-1.81 6.007.275 4.891 1.077-.576 3.37-2.655 5.095-4.62zm.984-7.926c8.479-4.296 14.835-13.02 17.03-23.376C57.773 4.51 57.51 3.252 53.75 3.266c-11.953.044-25.16 7.944-30.328 18.141-3.356 6.622-3.093 8.44 1.946 13.478 5.04 5.04 6.856 5.302 13.478 1.947zm-1.768-10.818c-5.072-2.638-4.719-10.805.554-12.81 5.567-2.116 11.228 2.772 9.8 8.462-1.117 4.452-6.118 6.552-10.354 4.349zm6.72-2.959c2.806-2.805.693-7.8-3.3-7.8-2.68 0-4.5 1.82-4.5 4.5 0 2.68 1.82 4.5 4.5 4.5 1.156 0 2.64-.54 3.3-1.2zm-28.032 4.707C17.564 27.244 21 21.906 21 19.632c0-2.079-8.221 4.299-10.124 7.854-1.116 2.085-1.355 2.072 4.89.275z"/><path fill="#7750a8" d="M.57 59.366c-.942-1.523 6.15-14.698 9.37-17.408 3.966-3.337 5.474-3.38 8.605-.249 3.118 3.118 3.086 4.641-.176 8.518-3.518 4.181-16.685 10.942-17.8 9.14zm9.365-5.579c8.045-4.077 10.666-9.07 6.054-11.539-2.505-1.34-6.445 2-9.522 8.071-3.576 7.056-3.588 7.044 3.468 3.468zM24.69 56.61c-.316-.315.515-2.22 1.846-4.231 1.332-2.012 2.696-5.036 3.033-6.72.55-2.755-.017-3.691-5.65-9.324s-6.569-6.2-9.324-5.65c-1.685.337-4.709 1.702-6.72 3.033-6.208 4.108-5.863 1.353.965-7.72 3.68-4.89 9.963-9.744 12.613-9.744.824 0 2.95-1.595 4.723-3.545C30.423 8.043 41.876 2.55 50 1.283c10.715-1.67 10.198-1.957 9.432 5.221-.967 9.062-4.038 17.502-8.548 23.5-2.172 2.888-4.376 5.25-4.897 5.25s-1.256 1.238-1.63 2.75c-.376 1.513-1.731 4.343-3.013 6.29-3.287 4.991-15.182 13.788-16.654 12.316zm13.123-11.769C40.116 42.343 42 39.875 42 39.357c0-.698-6.386 1.066-8.747 2.416-.136.078-.876 2.234-1.646 4.79-1.3 4.32-1.278 4.585.31 3.736.939-.503 3.592-2.959 5.895-5.457zm-.302-7.027c9.569-3.998 18.162-16.867 19.246-28.821l.548-6.044-6.044.548C39.307 4.58 26.438 13.174 22.44 22.743c-2.265 5.419-1.778 7.436 2.928 12.143 4.706 4.706 6.723 5.192 12.143 2.928zm-.147-11.73c-7.855-3.803-2.39-16.155 5.67-12.816 5.714 2.367 5.93 10.314.35 12.856-2.905 1.324-3.208 1.322-6.02-.04zm6.436-3.03c2.805-2.805.692-7.8-3.3-7.8-2.68 0-4.5 1.82-4.5 4.5 0 2.68 1.82 4.5 4.5 4.5 1.155 0 2.64-.54 3.3-1.2zm-25.32 3.947c1.35-2.362 3.115-8.747 2.417-8.747-1.222 0-9.753 7.862-10.942 10.083-.85 1.587-.584 1.609 3.735.31 2.557-.77 4.713-1.51 4.79-1.647z"/></symbol></svg>