<?xml version="1.0" standalone="no"?>
<!DOCTYPE svg PUBLIC "-//W3C//DTD SVG 20010904//EN"
 "http://www.w3.org/TR/2001/REC-SVG-20010904/DTD/svg10.dtd">
<svg version="1.0" xmlns="http://www.w3.org/2000/svg"
 width="58.000000pt" height="58.000000pt" viewBox="0 0 58.000000 58.000000"
 preserveAspectRatio="xMidYMid meet">
<metadata>
Created by potrace 1.10, written by Peter Selinger 2001-2011
</metadata>
<g transform="translate(0.000000,58.000000) scale(0.100000,-0.100000)"
fill="#6a328b" stroke="none">
<path d="M168 563 c-36 -14 -38 -17 -32 -52 8 -49 -20 -76 -70 -67 -33 6 -35
5 -51 -39 l-18 -45 27 -21 c35 -28 35 -70 0 -98 l-27 -21 17 -45 c17 -44 18
-45 54 -39 50 8 77 -20 68 -70 -6 -33 -5 -35 39 -51 l45 -18 21 27 c28 35 70
35 98 0 l21 -27 45 18 c44 16 45 18 39 50 -5 26 -1 38 16 55 17 17 29 21 55
16 32 -6 34 -5 50 39 l18 45 -27 21 c-17 13 -26 30 -26 49 0 19 9 36 26 49
l27 21 -18 45 c-16 44 -18 45 -50 39 -47 -8 -79 24 -71 71 6 32 5 34 -39 50
l-45 18 -21 -27 c-27 -34 -70 -35 -97 -1 -23 29 -25 29 -74 8z m122 -63 c16 0
41 11 57 24 37 32 71 19 65 -24 -6 -43 46 -94 89 -88 44 7 55 -26 23 -65 -30
-36 -30 -78 0 -114 32 -39 21 -72 -23 -65 -43 6 -95 -45 -89 -88 6 -43 -28
-56 -65 -24 -36 30 -78 31 -114 0 -39 -32 -72 -21 -65 23 6 44 -45 95 -89 89
-44 -7 -55 26 -23 65 30 36 30 78 0 114 -32 39 -21 72 23 65 43 -6 95 45 89
88 -6 43 27 55 65 24 16 -13 41 -24 57 -24z"/>
<path d="M229 351 c-39 -40 -39 -82 0 -122 20 -20 39 -29 61 -29 43 0 90 47
90 90 0 43 -47 90 -90 90 -22 0 -41 -9 -61 -29z m103 -18 c24 -21 23 -58 -2
-83 -55 -55 -136 24 -83 82 20 22 61 23 85 1z"/>
</g>
</svg>
