<?xml version="1.0" standalone="no"?>
<!DOCTYPE svg PUBLIC "-//W3C//DTD SVG 20010904//EN"
 "http://www.w3.org/TR/2001/REC-SVG-20010904/DTD/svg10.dtd">
<svg version="1.0" xmlns="http://www.w3.org/2000/svg"
 width="60.000000pt" height="60.000000pt" viewBox="0 0 60.000000 60.000000"
 preserveAspectRatio="xMidYMid meet">
<metadata>
Created by potrace 1.10, written by Peter Selinger 2001-2011
</metadata>
<g transform="translate(0.000000,60.000000) scale(0.100000,-0.100000)"
fill="#6a328b" stroke="none">
<path d="M231 589 c-134 -25 -222 -139 -223 -288 -1 -125 52 -215 158 -267 78
-38 191 -38 269 0 104 51 158 142 158 266 0 86 -21 144 -72 203 -63 71 -181
106 -290 86z m189 -50 c96 -48 148 -132 149 -239 1 -102 -56 -192 -150 -239
-86 -43 -152 -43 -239 0 -96 48 -148 132 -149 239 -1 102 56 192 150 239 86
43 152 43 239 0z"/>
<path d="M344 429 c-54 -44 -102 -87 -107 -94 -10 -18 -86 -239 -83 -242 4 -4
201 158 209 172 10 18 86 239 83 242 -1 1 -47 -34 -102 -78z m19 -80 c-24 -66
-34 -80 -90 -127 -35 -29 -63 -52 -63 -50 0 2 12 38 28 79 24 67 34 82 87 126
33 28 61 50 62 49 2 -1 -9 -36 -24 -77z"/>
</g>
</svg>
