<?xml version="1.0" standalone="no"?>
<!DOCTYPE svg PUBLIC "-//W3C//DTD SVG 20010904//EN"
 "http://www.w3.org/TR/2001/REC-SVG-20010904/DTD/svg10.dtd">
<svg version="1.0" xmlns="http://www.w3.org/2000/svg"
 width="57.000000pt" height="51.000000pt" viewBox="0 0 57.000000 51.000000"
 preserveAspectRatio="xMidYMid meet">
<metadata>
Created by potrace 1.10, written by Peter Selinger 2001-2011
</metadata>
<g transform="translate(0.000000,51.000000) scale(0.100000,-0.100000)"
fill="#6a328b" stroke="none">
<path d="M110 500 c-43 -10 -100 -70 -101 -107 -3 -71 3 -119 23 -156 28 -57
121 -152 192 -198 l59 -39 40 23 c57 31 173 142 204 195 52 88 50 190 -5 244
-54 55 -156 56 -211 4 l-28 -26 -19 21 c-10 11 -26 24 -34 29 -27 13 -84 18
-120 10z m108 -40 c18 -11 38 -31 44 -45 6 -14 17 -25 23 -25 6 0 17 11 23 25
15 32 69 65 107 65 41 0 90 -32 111 -71 45 -88 -28 -224 -180 -336 l-58 -43
-31 18 c-54 30 -182 164 -205 214 -39 84 -23 159 41 198 41 25 83 25 125 0z"/>
</g>
</svg>
