<?xml version="1.0" standalone="no"?>
<!DOCTYPE svg PUBLIC "-//W3C//DTD SVG 20010904//EN"
 "http://www.w3.org/TR/2001/REC-SVG-20010904/DTD/svg10.dtd">
<svg version="1.0" xmlns="http://www.w3.org/2000/svg"
 width="60.000000pt" height="60.000000pt" viewBox="0 0 60.000000 60.000000"
 preserveAspectRatio="xMidYMid meet">
<metadata>
Created by potrace 1.10, written by Peter Selinger 2001-2011
</metadata>
<g transform="translate(0.000000,60.000000) scale(0.100000,-0.100000)"
fill="#6a328b" stroke="none">
<path d="M486 589 c-75 -11 -153 -47 -208 -96 -24 -21 -62 -47 -86 -58 -47
-20 -115 -89 -147 -148 -21 -39 -14 -59 13 -39 28 20 96 52 112 51 8 0 28 -18
43 -40 15 -22 41 -48 57 -57 17 -9 30 -24 30 -32 0 -16 -32 -84 -52 -112 -20
-27 0 -34 39 -13 59 32 128 100 148 147 11 24 37 62 58 86 52 58 88 141 96
219 6 56 5 65 -14 83 -12 11 -23 19 -26 19 -2 -1 -30 -5 -63 -10z m80 -74 c-9
-80 -41 -157 -86 -208 -39 -44 -127 -97 -161 -97 -22 0 -109 86 -109 108 1 28
36 96 70 136 57 64 168 114 259 115 l34 1 -7 -55z m-366 -137 c-15 -33 -27
-44 -64 -59 l-46 -17 21 30 c18 24 93 88 105 88 2 0 -5 -19 -16 -42z m214
-170 c-19 -35 -57 -79 -83 -97 l-29 -21 17 46 c14 36 26 50 57 64 49 23 47 22
38 8z"/>
<path d="M355 455 c-14 -13 -25 -36 -25 -50 0 -14 11 -37 25 -50 13 -14 36
-25 50 -25 14 0 37 11 50 25 14 13 25 36 25 50 0 14 -11 37 -25 50 -13 14 -36
25 -50 25 -14 0 -37 -11 -50 -25z m83 -17 c7 -7 12 -21 12 -33 0 -12 -5 -26
-12 -33 -7 -7 -21 -12 -33 -12 -40 0 -61 50 -33 78 7 7 21 12 33 12 12 0 26
-5 33 -12z"/>
<path d="M98 191 c-28 -22 -84 -124 -90 -161 -4 -32 14 -30 99 11 96 46 128
104 83 149 -25 25 -60 26 -92 1z m76 -33 c16 -25 -1 -47 -65 -85 -84 -51 -88
-45 -29 46 43 66 70 77 94 39z"/>
</g>
</svg>
